<svg xmlns="http://www.w3.org/2000/svg" xmlns:xlink="http://www.w3.org/1999/xlink" width="500" zoomAndPan="magnify" viewBox="0 0 375 149.999998" height="200" preserveAspectRatio="xMidYMid meet" version="1.0"><defs><g/></defs><g fill="#2f3337" fill-opacity="1"><g transform="translate(-3.297188, 107.249996)"><g><path d="M 26.421875 19.21875 C 21.003906 19.21875 16.71875 18.226562 13.5625 16.25 C 10.414062 14.28125 8.085938 12.023438 6.578125 9.484375 L 12.515625 5.3125 C 13.191406 6.195312 14.046875 7.210938 15.078125 8.359375 C 16.109375 9.503906 17.523438 10.503906 19.328125 11.359375 C 21.128906 12.210938 23.492188 12.640625 26.421875 12.640625 C 30.335938 12.640625 33.566406 11.691406 36.109375 9.796875 C 38.660156 7.898438 39.9375 4.929688 39.9375 0.890625 L 39.9375 -8.96875 L 39.3125 -8.96875 C 38.757812 -8.082031 37.984375 -6.992188 36.984375 -5.703125 C 35.984375 -4.410156 34.550781 -3.265625 32.6875 -2.265625 C 30.820312 -1.265625 28.3125 -0.765625 25.15625 -0.765625 C 21.238281 -0.765625 17.722656 -1.6875 14.609375 -3.53125 C 11.503906 -5.382812 9.050781 -8.082031 7.25 -11.625 C 5.445312 -15.164062 4.546875 -19.460938 4.546875 -24.515625 C 4.546875 -29.492188 5.421875 -33.828125 7.171875 -37.515625 C 8.921875 -41.210938 11.351562 -44.078125 14.46875 -46.109375 C 17.59375 -48.148438 21.195312 -49.171875 25.28125 -49.171875 C 28.4375 -49.171875 30.945312 -48.648438 32.8125 -47.609375 C 34.675781 -46.566406 36.109375 -45.382812 37.109375 -44.0625 C 38.109375 -42.75 38.882812 -41.671875 39.4375 -40.828125 L 40.1875 -40.828125 L 40.1875 -48.53125 L 47.40625 -48.53125 L 47.40625 1.390625 C 47.40625 5.554688 46.460938 8.953125 44.578125 11.578125 C 42.691406 14.203125 40.160156 16.128906 36.984375 17.359375 C 33.816406 18.597656 30.296875 19.21875 26.421875 19.21875 Z M 26.171875 -7.453125 C 30.648438 -7.453125 34.082031 -8.972656 36.46875 -12.015625 C 38.863281 -15.066406 40.0625 -19.273438 40.0625 -24.640625 C 40.0625 -29.890625 38.878906 -34.171875 36.515625 -37.484375 C 34.160156 -40.804688 30.710938 -42.46875 26.171875 -42.46875 C 23.003906 -42.46875 20.375 -41.664062 18.28125 -40.0625 C 16.1875 -38.46875 14.617188 -36.320312 13.578125 -33.625 C 12.535156 -30.925781 12.015625 -27.929688 12.015625 -24.640625 C 12.015625 -19.585938 13.203125 -15.457031 15.578125 -12.25 C 17.960938 -9.050781 21.492188 -7.453125 26.171875 -7.453125 Z M 26.171875 -7.453125 "/></g></g></g><g fill="#2f3337" fill-opacity="1"><g transform="translate(50.925339, 107.249996)"><g><path d="M 6.828125 0 L 6.828125 -48.53125 L 14.03125 -48.53125 L 14.03125 -41.203125 L 14.53125 -41.203125 C 15.394531 -43.609375 16.984375 -45.554688 19.296875 -47.046875 C 21.617188 -48.546875 24.242188 -49.296875 27.171875 -49.296875 C 28.523438 -49.296875 29.707031 -49.132812 30.71875 -48.8125 C 31.726562 -48.5 32.613281 -48.070312 33.375 -47.53125 L 30.84375 -41.203125 C 30.3125 -41.472656 29.691406 -41.6875 28.984375 -41.84375 C 28.285156 -42.007812 27.472656 -42.09375 26.546875 -42.09375 C 23.003906 -42.09375 20.070312 -41.007812 17.75 -38.84375 C 15.4375 -36.6875 14.28125 -33.976562 14.28125 -30.71875 L 14.28125 0 Z M 6.828125 0 "/></g></g></g><g fill="#2f3337" fill-opacity="1"><g transform="translate(85.051401, 107.249996)"><g><path d="M 21.109375 1.140625 C 18.035156 1.140625 15.242188 0.554688 12.734375 -0.609375 C 10.222656 -1.785156 8.226562 -3.484375 6.75 -5.703125 C 5.28125 -7.921875 4.546875 -10.613281 4.546875 -13.78125 C 4.546875 -16.5625 5.09375 -18.816406 6.1875 -20.546875 C 7.289062 -22.285156 8.753906 -23.648438 10.578125 -24.640625 C 12.410156 -25.628906 14.4375 -26.375 16.65625 -26.875 C 18.882812 -27.375 21.128906 -27.769531 23.390625 -28.0625 C 26.335938 -28.4375 28.734375 -28.722656 30.578125 -28.921875 C 32.421875 -29.128906 33.765625 -29.472656 34.609375 -29.953125 C 35.460938 -30.441406 35.890625 -31.285156 35.890625 -32.484375 L 35.890625 -32.734375 C 35.890625 -35.847656 35.039062 -38.269531 33.34375 -40 C 31.65625 -41.726562 29.09375 -42.59375 25.65625 -42.59375 C 22.09375 -42.59375 19.300781 -41.8125 17.28125 -40.25 C 15.257812 -38.695312 13.835938 -37.035156 13.015625 -35.265625 L 5.9375 -37.796875 C 7.207031 -40.742188 8.898438 -43.039062 11.015625 -44.6875 C 13.128906 -46.34375 15.441406 -47.503906 17.953125 -48.171875 C 20.472656 -48.835938 22.957031 -49.171875 25.40625 -49.171875 C 26.96875 -49.171875 28.765625 -48.984375 30.796875 -48.609375 C 32.828125 -48.242188 34.796875 -47.492188 36.703125 -46.359375 C 38.609375 -45.222656 40.191406 -43.503906 41.453125 -41.203125 C 42.722656 -38.910156 43.359375 -35.835938 43.359375 -31.984375 L 43.359375 0 L 35.890625 0 L 35.890625 -6.578125 L 35.515625 -6.578125 C 35.015625 -5.523438 34.171875 -4.394531 32.984375 -3.1875 C 31.804688 -1.988281 30.238281 -0.96875 28.28125 -0.125 C 26.320312 0.71875 23.929688 1.140625 21.109375 1.140625 Z M 22.25 -5.5625 C 25.195312 -5.5625 27.6875 -6.140625 29.71875 -7.296875 C 31.75 -8.453125 33.285156 -9.945312 34.328125 -11.78125 C 35.367188 -13.613281 35.890625 -15.539062 35.890625 -17.5625 L 35.890625 -24.390625 C 35.578125 -24.015625 34.890625 -23.671875 33.828125 -23.359375 C 32.765625 -23.054688 31.539062 -22.796875 30.15625 -22.578125 C 28.78125 -22.359375 27.441406 -22.164062 26.140625 -22 C 24.847656 -21.84375 23.800781 -21.710938 23 -21.609375 C 21.0625 -21.359375 19.253906 -20.953125 17.578125 -20.390625 C 15.910156 -19.835938 14.566406 -19.003906 13.546875 -17.890625 C 12.523438 -16.785156 12.015625 -15.285156 12.015625 -13.390625 C 12.015625 -10.804688 12.976562 -8.851562 14.90625 -7.53125 C 16.832031 -6.21875 19.28125 -5.5625 22.25 -5.5625 Z M 22.25 -5.5625 "/></g></g></g><g fill="#2f3337" fill-opacity="1"><g transform="translate(135.229358, 107.249996)"><g><path d="M 6.828125 18.203125 L 6.828125 -48.53125 L 14.03125 -48.53125 L 14.03125 -40.828125 L 14.921875 -40.828125 C 15.460938 -41.671875 16.222656 -42.75 17.203125 -44.0625 C 18.179688 -45.382812 19.59375 -46.566406 21.4375 -47.609375 C 23.28125 -48.648438 25.78125 -49.171875 28.9375 -49.171875 C 33.03125 -49.171875 36.632812 -48.144531 39.75 -46.09375 C 42.863281 -44.050781 45.296875 -41.15625 47.046875 -37.40625 C 48.796875 -33.664062 49.671875 -29.242188 49.671875 -24.140625 C 49.671875 -19.003906 48.796875 -14.554688 47.046875 -10.796875 C 45.296875 -7.035156 42.875 -4.125 39.78125 -2.0625 C 36.6875 -0.0078125 33.117188 1.015625 29.078125 1.015625 C 25.953125 1.015625 23.453125 0.492188 21.578125 -0.546875 C 19.703125 -1.585938 18.257812 -2.773438 17.25 -4.109375 C 16.238281 -5.453125 15.460938 -6.566406 14.921875 -7.453125 L 14.28125 -7.453125 L 14.28125 18.203125 Z M 14.15625 -24.265625 C 14.15625 -18.765625 15.347656 -14.289062 17.734375 -10.84375 C 20.128906 -7.40625 23.570312 -5.6875 28.0625 -5.6875 C 31.175781 -5.6875 33.78125 -6.515625 35.875 -8.171875 C 37.976562 -9.828125 39.5625 -12.0625 40.625 -14.875 C 41.6875 -17.6875 42.21875 -20.816406 42.21875 -24.265625 C 42.21875 -27.679688 41.695312 -30.765625 40.65625 -33.515625 C 39.613281 -36.265625 38.039062 -38.441406 35.9375 -40.046875 C 33.84375 -41.660156 31.21875 -42.46875 28.0625 -42.46875 C 23.507812 -42.46875 20.050781 -40.789062 17.6875 -37.4375 C 15.332031 -34.09375 14.15625 -29.703125 14.15625 -24.265625 Z M 14.15625 -24.265625 "/></g></g></g><g fill="#2f3337" fill-opacity="1"><g transform="translate(189.451885, 107.249996)"><g><path d="M 14.28125 -29.203125 L 14.28125 0 L 6.828125 0 L 6.828125 -64.71875 L 14.28125 -64.71875 L 14.28125 -40.953125 L 14.921875 -40.953125 C 16.054688 -43.460938 17.765625 -45.457031 20.046875 -46.9375 C 22.335938 -48.425781 25.390625 -49.171875 29.203125 -49.171875 C 34.171875 -49.171875 38.171875 -47.671875 41.203125 -44.671875 C 44.234375 -41.679688 45.75 -37.070312 45.75 -30.84375 L 45.75 0 L 38.296875 0 L 38.296875 -30.328125 C 38.296875 -34.191406 37.300781 -37.179688 35.3125 -39.296875 C 33.320312 -41.410156 30.566406 -42.46875 27.046875 -42.46875 C 23.359375 -42.46875 20.304688 -41.3125 17.890625 -39 C 15.484375 -36.695312 14.28125 -33.429688 14.28125 -29.203125 Z M 14.28125 -29.203125 "/></g></g></g><g fill="#2f3337" fill-opacity="1"><g transform="translate(242.031304, 107.249996)"><g><path d="M 14.28125 -29.203125 L 14.28125 0 L 6.828125 0 L 6.828125 -48.53125 L 14.03125 -48.53125 L 14.03125 -40.953125 L 14.65625 -40.953125 C 15.800781 -43.421875 17.53125 -45.40625 19.84375 -46.90625 C 22.164062 -48.414062 25.15625 -49.171875 28.8125 -49.171875 C 33.726562 -49.171875 37.695312 -47.660156 40.71875 -44.640625 C 43.738281 -41.628906 45.25 -37.03125 45.25 -30.84375 L 45.25 0 L 37.796875 0 L 37.796875 -30.328125 C 37.796875 -34.148438 36.804688 -37.128906 34.828125 -39.265625 C 32.847656 -41.398438 30.128906 -42.46875 26.671875 -42.46875 C 23.109375 -42.46875 20.148438 -41.3125 17.796875 -39 C 15.453125 -36.695312 14.28125 -33.429688 14.28125 -29.203125 Z M 14.28125 -29.203125 "/></g></g></g><g fill="#2f3337" fill-opacity="1"><g transform="translate(294.105169, 107.249996)"><g><path d="M 27.171875 1.015625 C 22.492188 1.015625 18.460938 -0.0195312 15.078125 -2.09375 C 11.703125 -4.175781 9.101562 -7.085938 7.28125 -10.828125 C 5.457031 -14.566406 4.546875 -18.921875 4.546875 -23.890625 C 4.546875 -28.859375 5.457031 -33.242188 7.28125 -37.046875 C 9.101562 -40.847656 11.648438 -43.816406 14.921875 -45.953125 C 18.203125 -48.097656 22.035156 -49.171875 26.421875 -49.171875 C 28.941406 -49.171875 31.4375 -48.75 33.90625 -47.90625 C 36.375 -47.0625 38.617188 -45.695312 40.640625 -43.8125 C 42.660156 -41.925781 44.269531 -39.429688 45.46875 -36.328125 C 46.664062 -33.234375 47.265625 -29.425781 47.265625 -24.90625 L 47.265625 -21.734375 L 12.046875 -21.734375 C 12.210938 -16.554688 13.679688 -12.585938 16.453125 -9.828125 C 19.222656 -7.066406 22.796875 -5.6875 27.171875 -5.6875 C 30.097656 -5.6875 32.613281 -6.316406 34.71875 -7.578125 C 36.832031 -8.847656 38.363281 -10.742188 39.3125 -13.265625 L 46.515625 -11.25 C 45.378906 -7.582031 43.101562 -4.617188 39.6875 -2.359375 C 36.269531 -0.109375 32.097656 1.015625 27.171875 1.015625 Z M 12.046875 -28.1875 L 39.6875 -28.1875 C 39.6875 -32.289062 38.484375 -35.695312 36.078125 -38.40625 C 33.679688 -41.113281 30.460938 -42.46875 26.421875 -42.46875 C 23.578125 -42.46875 21.109375 -41.800781 19.015625 -40.46875 C 16.929688 -39.144531 15.289062 -37.394531 14.09375 -35.21875 C 12.894531 -33.039062 12.210938 -30.695312 12.046875 -28.1875 Z M 12.046875 -28.1875 "/></g></g></g><g fill="#2f3337" fill-opacity="1"><g transform="translate(345.926234, 107.249996)"><g><path d="M 27.9375 -48.53125 L 27.9375 -42.21875 L 17.5625 -42.21875 L 17.5625 -13.90625 C 17.5625 -11.800781 17.875 -10.222656 18.5 -9.171875 C 19.125 -8.128906 19.925781 -7.4375 20.90625 -7.09375 C 21.882812 -6.75 22.921875 -6.578125 24.015625 -6.578125 C 24.835938 -6.578125 25.507812 -6.625 26.03125 -6.71875 C 26.5625 -6.8125 26.984375 -6.890625 27.296875 -6.953125 L 28.8125 -0.25 C 28.3125 -0.0625 27.609375 0.128906 26.703125 0.328125 C 25.796875 0.523438 24.644531 0.625 23.25 0.625 C 21.144531 0.625 19.085938 0.175781 17.078125 -0.71875 C 15.066406 -1.625 13.398438 -3.003906 12.078125 -4.859375 C 10.765625 -6.710938 10.109375 -9.050781 10.109375 -11.875 L 10.109375 -42.21875 L 2.78125 -42.21875 L 2.78125 -48.53125 L 10.109375 -48.53125 L 10.109375 -60.171875 L 17.5625 -60.171875 L 17.5625 -48.53125 Z M 27.9375 -48.53125 "/></g></g></g></svg>