<svg xmlns="http://www.w3.org/2000/svg" xmlns:xlink="http://www.w3.org/1999/xlink" width="500" zoomAndPan="magnify" viewBox="0 0 375 149.999998" height="200" preserveAspectRatio="xMidYMid meet" version="1.0"><defs><g/><clipPath id="a19f5917f3"><path d="M 8.253906 32.328125 L 368.910156 32.328125 L 368.910156 128.402344 L 8.253906 128.402344 Z M 8.253906 32.328125 " clip-rule="nonzero"/></clipPath><clipPath id="8c7efedda2"><path d="M 15.003906 32.328125 L 362.128906 32.328125 C 363.917969 32.328125 365.636719 33.039062 366.902344 34.304688 C 368.167969 35.570312 368.878906 37.289062 368.878906 39.078125 L 368.878906 121.652344 C 368.878906 123.441406 368.167969 125.160156 366.902344 126.425781 C 365.636719 127.691406 363.917969 128.402344 362.128906 128.402344 L 15.003906 128.402344 C 11.277344 128.402344 8.253906 125.382812 8.253906 121.652344 L 8.253906 39.078125 C 8.253906 35.351562 11.277344 32.328125 15.003906 32.328125 Z M 15.003906 32.328125 " clip-rule="nonzero"/></clipPath></defs><g clip-path="url(#a19f5917f3)"><g clip-path="url(#8c7efedda2)"><path fill="#fdfdfd" d="M 8.253906 32.328125 L 368.910156 32.328125 L 368.910156 128.402344 L 8.253906 128.402344 Z M 8.253906 32.328125 " fill-opacity="1" fill-rule="nonzero"/></g></g><g fill="#2f3337" fill-opacity="1"><g transform="translate(11.400313, 104.765711)"><g><path d="M 24.375 17.734375 C 19.382812 17.734375 15.4375 16.820312 12.53125 15 C 9.625 13.1875 7.46875 11.101562 6.0625 8.75 L 11.546875 4.90625 C 12.171875 5.71875 12.957031 6.648438 13.90625 7.703125 C 14.863281 8.765625 16.171875 9.691406 17.828125 10.484375 C 19.492188 11.273438 21.675781 11.671875 24.375 11.671875 C 28 11.671875 30.984375 10.796875 33.328125 9.046875 C 35.679688 7.296875 36.859375 4.550781 36.859375 0.8125 L 36.859375 -8.28125 L 36.28125 -8.28125 C 35.769531 -7.46875 35.050781 -6.460938 34.125 -5.265625 C 33.207031 -4.066406 31.890625 -3.003906 30.171875 -2.078125 C 28.453125 -1.160156 26.132812 -0.703125 23.21875 -0.703125 C 19.601562 -0.703125 16.359375 -1.554688 13.484375 -3.265625 C 10.617188 -4.972656 8.351562 -7.457031 6.6875 -10.71875 C 5.03125 -13.988281 4.203125 -17.957031 4.203125 -22.625 C 4.203125 -27.21875 5.007812 -31.21875 6.625 -34.625 C 8.238281 -38.039062 10.484375 -40.6875 13.359375 -42.5625 C 16.234375 -44.4375 19.554688 -45.375 23.328125 -45.375 C 26.242188 -45.375 28.5625 -44.890625 30.28125 -43.921875 C 32.007812 -42.960938 33.332031 -41.875 34.25 -40.65625 C 35.175781 -39.445312 35.890625 -38.453125 36.390625 -37.671875 L 37.09375 -37.671875 L 37.09375 -44.796875 L 43.75 -44.796875 L 43.75 1.28125 C 43.75 5.132812 42.878906 8.269531 41.140625 10.6875 C 39.398438 13.101562 37.066406 14.878906 34.140625 16.015625 C 31.210938 17.160156 27.957031 17.734375 24.375 17.734375 Z M 24.140625 -6.875 C 28.285156 -6.875 31.460938 -8.28125 33.671875 -11.09375 C 35.878906 -13.90625 36.984375 -17.789062 36.984375 -22.75 C 36.984375 -27.59375 35.894531 -31.546875 33.71875 -34.609375 C 31.539062 -37.671875 28.347656 -39.203125 24.140625 -39.203125 C 21.222656 -39.203125 18.796875 -38.460938 16.859375 -36.984375 C 14.929688 -35.503906 13.484375 -33.519531 12.515625 -31.03125 C 11.554688 -28.539062 11.078125 -25.78125 11.078125 -22.75 C 11.078125 -18.082031 12.175781 -14.269531 14.375 -11.3125 C 16.570312 -8.351562 19.828125 -6.875 24.140625 -6.875 Z M 24.140625 -6.875 "/></g></g></g><g fill="#2f3337" fill-opacity="1"><g transform="translate(61.445966, 104.765711)"><g><path d="M 6.296875 0 L 6.296875 -44.796875 L 12.953125 -44.796875 L 12.953125 -38.03125 L 13.421875 -38.03125 C 14.210938 -40.25 15.675781 -42.046875 17.8125 -43.421875 C 19.957031 -44.804688 22.378906 -45.5 25.078125 -45.5 C 26.328125 -45.5 27.414062 -45.351562 28.34375 -45.0625 C 29.28125 -44.769531 30.097656 -44.367188 30.796875 -43.859375 L 28.46875 -38.03125 C 27.976562 -38.28125 27.40625 -38.476562 26.75 -38.625 C 26.101562 -38.769531 25.351562 -38.84375 24.5 -38.84375 C 21.226562 -38.84375 18.523438 -37.847656 16.390625 -35.859375 C 14.253906 -33.867188 13.1875 -31.363281 13.1875 -28.34375 L 13.1875 0 Z M 6.296875 0 "/></g></g></g><g fill="#2f3337" fill-opacity="1"><g transform="translate(92.943226, 104.765711)"><g><path d="M 19.484375 1.046875 C 16.640625 1.046875 14.0625 0.507812 11.75 -0.5625 C 9.4375 -1.644531 7.597656 -3.210938 6.234375 -5.265625 C 4.878906 -7.316406 4.203125 -9.800781 4.203125 -12.71875 C 4.203125 -15.28125 4.707031 -17.363281 5.71875 -18.96875 C 6.726562 -20.570312 8.078125 -21.832031 9.765625 -22.75 C 11.460938 -23.664062 13.332031 -24.347656 15.375 -24.796875 C 17.425781 -25.253906 19.492188 -25.617188 21.578125 -25.890625 C 24.296875 -26.242188 26.503906 -26.507812 28.203125 -26.6875 C 29.910156 -26.875 31.15625 -27.191406 31.9375 -27.640625 C 32.726562 -28.085938 33.125 -28.867188 33.125 -29.984375 L 33.125 -30.21875 C 33.125 -33.09375 32.34375 -35.328125 30.78125 -36.921875 C 29.21875 -38.515625 26.851562 -39.3125 23.6875 -39.3125 C 20.394531 -39.3125 17.816406 -38.59375 15.953125 -37.15625 C 14.085938 -35.71875 12.773438 -34.179688 12.015625 -32.546875 L 5.484375 -34.875 C 6.648438 -37.601562 8.207031 -39.726562 10.15625 -41.25 C 12.113281 -42.78125 14.253906 -43.847656 16.578125 -44.453125 C 18.898438 -45.066406 21.191406 -45.375 23.453125 -45.375 C 24.890625 -45.375 26.546875 -45.203125 28.421875 -44.859375 C 30.296875 -44.523438 32.113281 -43.832031 33.875 -42.78125 C 35.632812 -41.726562 37.097656 -40.140625 38.265625 -38.015625 C 39.429688 -35.898438 40.015625 -33.066406 40.015625 -29.515625 L 40.015625 0 L 33.125 0 L 33.125 -6.0625 L 32.78125 -6.0625 C 32.3125 -5.09375 31.53125 -4.050781 30.4375 -2.9375 C 29.351562 -1.832031 27.90625 -0.890625 26.09375 -0.109375 C 24.289062 0.660156 22.085938 1.046875 19.484375 1.046875 Z M 20.53125 -5.125 C 23.25 -5.125 25.546875 -5.660156 27.421875 -6.734375 C 29.304688 -7.804688 30.726562 -9.1875 31.6875 -10.875 C 32.644531 -12.570312 33.125 -14.351562 33.125 -16.21875 L 33.125 -22.515625 C 32.832031 -22.160156 32.195312 -21.84375 31.21875 -21.5625 C 30.238281 -21.28125 29.109375 -21.035156 27.828125 -20.828125 C 26.554688 -20.628906 25.320312 -20.457031 24.125 -20.3125 C 22.9375 -20.164062 21.972656 -20.046875 21.234375 -19.953125 C 19.441406 -19.710938 17.769531 -19.332031 16.21875 -18.8125 C 14.675781 -18.300781 13.429688 -17.535156 12.484375 -16.515625 C 11.546875 -15.492188 11.078125 -14.109375 11.078125 -12.359375 C 11.078125 -9.972656 11.96875 -8.171875 13.75 -6.953125 C 15.53125 -5.734375 17.789062 -5.125 20.53125 -5.125 Z M 20.53125 -5.125 "/></g></g></g><g fill="#2f3337" fill-opacity="1"><g transform="translate(139.255869, 104.765711)"><g><path d="M 6.296875 16.796875 L 6.296875 -44.796875 L 12.953125 -44.796875 L 12.953125 -37.671875 L 13.765625 -37.671875 C 14.273438 -38.453125 14.976562 -39.445312 15.875 -40.65625 C 16.78125 -41.875 18.082031 -42.960938 19.78125 -43.921875 C 21.488281 -44.890625 23.800781 -45.375 26.71875 -45.375 C 30.488281 -45.375 33.8125 -44.429688 36.6875 -42.546875 C 39.5625 -40.660156 41.804688 -37.988281 43.421875 -34.53125 C 45.035156 -31.070312 45.84375 -26.988281 45.84375 -22.28125 C 45.84375 -17.539062 45.035156 -13.429688 43.421875 -9.953125 C 41.804688 -6.484375 39.570312 -3.800781 36.71875 -1.90625 C 33.863281 -0.0078125 30.566406 0.9375 26.828125 0.9375 C 23.953125 0.9375 21.648438 0.457031 19.921875 -0.5 C 18.191406 -1.46875 16.859375 -2.566406 15.921875 -3.796875 C 14.992188 -5.035156 14.273438 -6.0625 13.765625 -6.875 L 13.1875 -6.875 L 13.1875 16.796875 Z M 13.0625 -22.390625 C 13.0625 -17.316406 14.164062 -13.191406 16.375 -10.015625 C 18.582031 -6.835938 21.753906 -5.25 25.890625 -5.25 C 28.773438 -5.25 31.179688 -6.007812 33.109375 -7.53125 C 35.046875 -9.0625 36.503906 -11.125 37.484375 -13.71875 C 38.472656 -16.3125 38.96875 -19.203125 38.96875 -22.390625 C 38.96875 -25.546875 38.484375 -28.390625 37.515625 -30.921875 C 36.554688 -33.460938 35.109375 -35.476562 33.171875 -36.96875 C 31.234375 -38.457031 28.804688 -39.203125 25.890625 -39.203125 C 21.691406 -39.203125 18.503906 -37.65625 16.328125 -34.5625 C 14.148438 -31.46875 13.0625 -27.410156 13.0625 -22.390625 Z M 13.0625 -22.390625 "/></g></g></g><g fill="#2f3337" fill-opacity="1"><g transform="translate(189.301521, 104.765711)"><g><path d="M 13.1875 -26.953125 L 13.1875 0 L 6.296875 0 L 6.296875 -59.734375 L 13.1875 -59.734375 L 13.1875 -37.796875 L 13.765625 -37.796875 C 14.816406 -40.109375 16.394531 -41.945312 18.5 -43.3125 C 20.613281 -44.6875 23.429688 -45.375 26.953125 -45.375 C 31.535156 -45.375 35.226562 -43.992188 38.03125 -41.234375 C 40.832031 -38.472656 42.234375 -34.21875 42.234375 -28.46875 L 42.234375 0 L 35.34375 0 L 35.34375 -28 C 35.34375 -31.550781 34.421875 -34.304688 32.578125 -36.265625 C 30.742188 -38.222656 28.207031 -39.203125 24.96875 -39.203125 C 21.5625 -39.203125 18.742188 -38.132812 16.515625 -36 C 14.296875 -33.875 13.1875 -30.859375 13.1875 -26.953125 Z M 13.1875 -26.953125 "/></g></g></g><g fill="#2f3337" fill-opacity="1"><g transform="translate(237.830637, 104.765711)"><g><path d="M 13.1875 -26.953125 L 13.1875 0 L 6.296875 0 L 6.296875 -44.796875 L 12.953125 -44.796875 L 12.953125 -37.796875 L 13.53125 -37.796875 C 14.582031 -40.066406 16.175781 -41.894531 18.3125 -43.28125 C 20.445312 -44.675781 23.207031 -45.375 26.59375 -45.375 C 31.125 -45.375 34.785156 -43.984375 37.578125 -41.203125 C 40.367188 -38.421875 41.765625 -34.175781 41.765625 -28.46875 L 41.765625 0 L 34.875 0 L 34.875 -28 C 34.875 -31.519531 33.957031 -34.265625 32.125 -36.234375 C 30.300781 -38.210938 27.796875 -39.203125 24.609375 -39.203125 C 21.328125 -39.203125 18.601562 -38.132812 16.4375 -36 C 14.269531 -33.875 13.1875 -30.859375 13.1875 -26.953125 Z M 13.1875 -26.953125 "/></g></g></g><g fill="#2f3337" fill-opacity="1"><g transform="translate(285.893143, 104.765711)"><g><path d="M 25.078125 0.9375 C 20.765625 0.9375 17.046875 -0.0195312 13.921875 -1.9375 C 10.804688 -3.851562 8.40625 -6.535156 6.71875 -9.984375 C 5.039062 -13.441406 4.203125 -17.460938 4.203125 -22.046875 C 4.203125 -26.640625 5.039062 -30.6875 6.71875 -34.1875 C 8.40625 -37.695312 10.757812 -40.4375 13.78125 -42.40625 C 16.800781 -44.382812 20.332031 -45.375 24.375 -45.375 C 26.707031 -45.375 29.007812 -44.984375 31.28125 -44.203125 C 33.5625 -43.429688 35.632812 -42.175781 37.5 -40.4375 C 39.363281 -38.695312 40.847656 -36.394531 41.953125 -33.53125 C 43.066406 -30.675781 43.625 -27.160156 43.625 -22.984375 L 43.625 -20.0625 L 11.109375 -20.0625 C 11.265625 -15.28125 12.617188 -11.613281 15.171875 -9.0625 C 17.734375 -6.519531 21.035156 -5.25 25.078125 -5.25 C 27.785156 -5.25 30.109375 -5.832031 32.046875 -7 C 33.992188 -8.164062 35.40625 -9.914062 36.28125 -12.25 L 42.921875 -10.375 C 41.878906 -7 39.78125 -4.269531 36.625 -2.1875 C 33.476562 -0.101562 29.628906 0.9375 25.078125 0.9375 Z M 11.109375 -26.015625 L 36.625 -26.015625 C 36.625 -29.804688 35.515625 -32.953125 33.296875 -35.453125 C 31.085938 -37.953125 28.113281 -39.203125 24.375 -39.203125 C 21.75 -39.203125 19.472656 -38.585938 17.546875 -37.359375 C 15.628906 -36.128906 14.113281 -34.507812 13 -32.5 C 11.894531 -30.488281 11.265625 -28.328125 11.109375 -26.015625 Z M 11.109375 -26.015625 "/></g></g></g><g fill="#2f3337" fill-opacity="1"><g transform="translate(333.722323, 104.765711)"><g><path d="M 25.78125 -44.796875 L 25.78125 -38.96875 L 16.21875 -38.96875 L 16.21875 -12.828125 C 16.21875 -10.890625 16.503906 -9.4375 17.078125 -8.46875 C 17.648438 -7.507812 18.382812 -6.867188 19.28125 -6.546875 C 20.1875 -6.222656 21.148438 -6.0625 22.171875 -6.0625 C 22.921875 -6.0625 23.539062 -6.101562 24.03125 -6.1875 C 24.519531 -6.28125 24.910156 -6.359375 25.203125 -6.421875 L 26.59375 -0.234375 C 26.125 -0.0546875 25.472656 0.117188 24.640625 0.296875 C 23.804688 0.484375 22.75 0.578125 21.46875 0.578125 C 19.519531 0.578125 17.617188 0.160156 15.765625 -0.671875 C 13.910156 -1.503906 12.375 -2.773438 11.15625 -4.484375 C 9.9375 -6.203125 9.328125 -8.363281 9.328125 -10.96875 L 9.328125 -38.96875 L 2.5625 -38.96875 L 2.5625 -44.796875 L 9.328125 -44.796875 L 9.328125 -55.53125 L 16.21875 -55.53125 L 16.21875 -44.796875 Z M 25.78125 -44.796875 "/></g></g></g></svg>