<svg xmlns="http://www.w3.org/2000/svg" xmlns:xlink="http://www.w3.org/1999/xlink" width="500" zoomAndPan="magnify" viewBox="0 0 375 149.999998" height="200" preserveAspectRatio="xMidYMid meet" version="1.0"><defs><g/><clipPath id="e1976a57d8"><path d="M 4.136719 47.710938 L 66.296875 47.710938 L 66.296875 109.867188 L 4.136719 109.867188 Z M 4.136719 47.710938 " clip-rule="nonzero"/></clipPath><clipPath id="c56c324558"><path d="M 35.21875 47.710938 C 18.050781 47.710938 4.136719 61.625 4.136719 78.789062 C 4.136719 95.953125 18.050781 109.867188 35.21875 109.867188 C 52.382812 109.867188 66.296875 95.953125 66.296875 78.789062 C 66.296875 61.625 52.382812 47.710938 35.21875 47.710938 Z M 35.21875 47.710938 " clip-rule="nonzero"/></clipPath><clipPath id="cc71c541d3"><path d="M 9.191406 52.761719 L 61.09375 52.761719 L 61.09375 104.664062 L 9.191406 104.664062 Z M 9.191406 52.761719 " clip-rule="nonzero"/></clipPath></defs><rect x="-37.5" width="450" fill="#ffffff" y="-15" height="179.999997" fill-opacity="1"/><rect x="-37.5" width="450" fill="#ffffff" y="-15" height="179.999997" fill-opacity="1"/><g fill="#2f3337" fill-opacity="1"><g transform="translate(72.911627, 91.655964)"><g><path d="M 20.75 15.09375 C 16.5 15.09375 13.132812 14.316406 10.65625 12.765625 C 8.1875 11.222656 6.351562 9.453125 5.15625 7.453125 L 9.828125 4.171875 C 10.359375 4.867188 11.03125 5.664062 11.84375 6.5625 C 12.65625 7.46875 13.765625 8.253906 15.171875 8.921875 C 16.585938 9.597656 18.445312 9.9375 20.75 9.9375 C 23.832031 9.9375 26.375 9.191406 28.375 7.703125 C 30.375 6.210938 31.375 3.875 31.375 0.6875 L 31.375 -7.046875 L 30.875 -7.046875 C 30.445312 -6.347656 29.835938 -5.488281 29.046875 -4.46875 C 28.265625 -3.457031 27.140625 -2.554688 25.671875 -1.765625 C 24.210938 -0.984375 22.242188 -0.59375 19.765625 -0.59375 C 16.679688 -0.59375 13.914062 -1.320312 11.46875 -2.78125 C 9.03125 -4.238281 7.101562 -6.359375 5.6875 -9.140625 C 4.28125 -11.921875 3.578125 -15.296875 3.578125 -19.265625 C 3.578125 -23.171875 4.265625 -26.578125 5.640625 -29.484375 C 7.015625 -32.390625 8.925781 -34.640625 11.375 -36.234375 C 13.820312 -37.828125 16.648438 -38.625 19.859375 -38.625 C 22.335938 -38.625 24.3125 -38.210938 25.78125 -37.390625 C 27.25 -36.578125 28.375 -35.648438 29.15625 -34.609375 C 29.9375 -33.578125 30.546875 -32.734375 30.984375 -32.078125 L 31.578125 -32.078125 L 31.578125 -38.125 L 37.234375 -38.125 L 37.234375 1.09375 C 37.234375 4.363281 36.492188 7.03125 35.015625 9.09375 C 33.535156 11.15625 31.550781 12.671875 29.0625 13.640625 C 26.570312 14.609375 23.800781 15.09375 20.75 15.09375 Z M 20.5625 -5.859375 C 24.082031 -5.859375 26.78125 -7.050781 28.65625 -9.4375 C 30.539062 -11.832031 31.484375 -15.140625 31.484375 -19.359375 C 31.484375 -23.484375 30.554688 -26.847656 28.703125 -29.453125 C 26.847656 -32.054688 24.132812 -33.359375 20.5625 -33.359375 C 18.070312 -33.359375 16.003906 -32.726562 14.359375 -31.46875 C 12.710938 -30.21875 11.476562 -28.53125 10.65625 -26.40625 C 9.84375 -24.289062 9.4375 -21.941406 9.4375 -19.359375 C 9.4375 -15.390625 10.367188 -12.144531 12.234375 -9.625 C 14.109375 -7.113281 16.882812 -5.859375 20.5625 -5.859375 Z M 20.5625 -5.859375 "/></g></g></g><g fill="#2f3337" fill-opacity="1"><g transform="translate(115.510994, 91.655964)"><g><path d="M 5.359375 0 L 5.359375 -38.125 L 11.015625 -38.125 L 11.015625 -32.375 L 11.421875 -32.375 C 12.097656 -34.257812 13.347656 -35.785156 15.171875 -36.953125 C 16.992188 -38.128906 19.050781 -38.71875 21.34375 -38.71875 C 22.40625 -38.71875 23.332031 -38.59375 24.125 -38.34375 C 24.925781 -38.101562 25.625 -37.769531 26.21875 -37.34375 L 24.234375 -32.375 C 23.816406 -32.582031 23.328125 -32.75 22.765625 -32.875 C 22.210938 -33 21.578125 -33.0625 20.859375 -33.0625 C 18.078125 -33.0625 15.773438 -32.210938 13.953125 -30.515625 C 12.128906 -28.828125 11.21875 -26.695312 11.21875 -24.125 L 11.21875 0 Z M 5.359375 0 "/></g></g></g><g fill="#2f3337" fill-opacity="1"><g transform="translate(142.321781, 91.655964)"><g><path d="M 16.578125 0.890625 C 14.160156 0.890625 11.96875 0.429688 10 -0.484375 C 8.03125 -1.398438 6.46875 -2.726562 5.3125 -4.46875 C 4.15625 -6.21875 3.578125 -8.335938 3.578125 -10.828125 C 3.578125 -13.003906 4.003906 -14.773438 4.859375 -16.140625 C 5.722656 -17.515625 6.875 -18.585938 8.3125 -19.359375 C 9.75 -20.140625 11.34375 -20.722656 13.09375 -21.109375 C 14.84375 -21.503906 16.601562 -21.816406 18.375 -22.046875 C 20.6875 -22.335938 22.566406 -22.5625 24.015625 -22.71875 C 25.460938 -22.882812 26.519531 -23.15625 27.1875 -23.53125 C 27.863281 -23.914062 28.203125 -24.578125 28.203125 -25.515625 L 28.203125 -25.71875 C 28.203125 -28.164062 27.535156 -30.066406 26.203125 -31.421875 C 24.867188 -32.785156 22.851562 -33.46875 20.15625 -33.46875 C 17.363281 -33.46875 15.171875 -32.851562 13.578125 -31.625 C 11.992188 -30.40625 10.878906 -29.097656 10.234375 -27.703125 L 4.671875 -29.6875 C 5.660156 -32.007812 6.984375 -33.816406 8.640625 -35.109375 C 10.304688 -36.410156 12.128906 -37.320312 14.109375 -37.84375 C 16.085938 -38.363281 18.035156 -38.625 19.953125 -38.625 C 21.179688 -38.625 22.59375 -38.476562 24.1875 -38.1875 C 25.789062 -37.90625 27.335938 -37.316406 28.828125 -36.421875 C 30.328125 -35.523438 31.570312 -34.175781 32.5625 -32.375 C 33.5625 -30.570312 34.0625 -28.15625 34.0625 -25.125 L 34.0625 0 L 28.203125 0 L 28.203125 -5.15625 L 27.90625 -5.15625 C 27.507812 -4.332031 26.847656 -3.445312 25.921875 -2.5 C 24.992188 -1.5625 23.757812 -0.757812 22.21875 -0.09375 C 20.675781 0.5625 18.796875 0.890625 16.578125 0.890625 Z M 17.46875 -4.375 C 19.789062 -4.375 21.75 -4.828125 23.34375 -5.734375 C 24.945312 -6.640625 26.15625 -7.8125 26.96875 -9.25 C 27.789062 -10.695312 28.203125 -12.210938 28.203125 -13.796875 L 28.203125 -19.171875 C 27.953125 -18.867188 27.410156 -18.597656 26.578125 -18.359375 C 25.742188 -18.117188 24.78125 -17.910156 23.6875 -17.734375 C 22.601562 -17.554688 21.550781 -17.40625 20.53125 -17.28125 C 19.519531 -17.164062 18.703125 -17.066406 18.078125 -16.984375 C 16.546875 -16.785156 15.125 -16.460938 13.8125 -16.015625 C 12.5 -15.578125 11.441406 -14.925781 10.640625 -14.0625 C 9.835938 -13.195312 9.4375 -12.019531 9.4375 -10.53125 C 9.4375 -8.488281 10.191406 -6.953125 11.703125 -5.921875 C 13.210938 -4.890625 15.132812 -4.375 17.46875 -4.375 Z M 17.46875 -4.375 "/></g></g></g><g fill="#2f3337" fill-opacity="1"><g transform="translate(181.743574, 91.655964)"><g><path d="M 5.359375 14.296875 L 5.359375 -38.125 L 11.015625 -38.125 L 11.015625 -32.078125 L 11.71875 -32.078125 C 12.144531 -32.734375 12.742188 -33.578125 13.515625 -34.609375 C 14.285156 -35.648438 15.394531 -36.578125 16.84375 -37.390625 C 18.289062 -38.210938 20.253906 -38.625 22.734375 -38.625 C 25.953125 -38.625 28.785156 -37.820312 31.234375 -36.21875 C 33.679688 -34.613281 35.59375 -32.335938 36.96875 -29.390625 C 38.34375 -26.441406 39.03125 -22.96875 39.03125 -18.96875 C 39.03125 -14.925781 38.34375 -11.425781 36.96875 -8.46875 C 35.59375 -5.519531 33.6875 -3.238281 31.25 -1.625 C 28.820312 -0.0078125 26.019531 0.796875 22.84375 0.796875 C 20.394531 0.796875 18.429688 0.390625 16.953125 -0.421875 C 15.484375 -1.242188 14.347656 -2.179688 13.546875 -3.234375 C 12.753906 -4.285156 12.144531 -5.160156 11.71875 -5.859375 L 11.21875 -5.859375 L 11.21875 14.296875 Z M 11.125 -19.0625 C 11.125 -14.75 12.0625 -11.238281 13.9375 -8.53125 C 15.8125 -5.820312 18.515625 -4.46875 22.046875 -4.46875 C 24.492188 -4.46875 26.539062 -5.113281 28.1875 -6.40625 C 29.832031 -7.707031 31.070312 -9.460938 31.90625 -11.671875 C 32.75 -13.890625 33.171875 -16.351562 33.171875 -19.0625 C 33.171875 -21.75 32.757812 -24.171875 31.9375 -26.328125 C 31.113281 -28.484375 29.878906 -30.191406 28.234375 -31.453125 C 26.585938 -32.722656 24.523438 -33.359375 22.046875 -33.359375 C 18.472656 -33.359375 15.757812 -32.039062 13.90625 -29.40625 C 12.050781 -26.78125 11.125 -23.332031 11.125 -19.0625 Z M 11.125 -19.0625 "/></g></g></g><g fill="#2f3337" fill-opacity="1"><g transform="translate(224.342941, 91.655964)"><g><path d="M 11.21875 -22.9375 L 11.21875 0 L 5.359375 0 L 5.359375 -50.84375 L 11.21875 -50.84375 L 11.21875 -32.171875 L 11.71875 -32.171875 C 12.613281 -34.140625 13.957031 -35.707031 15.75 -36.875 C 17.539062 -38.039062 19.9375 -38.625 22.9375 -38.625 C 26.84375 -38.625 29.988281 -37.445312 32.375 -35.09375 C 34.757812 -32.75 35.953125 -29.128906 35.953125 -24.234375 L 35.953125 0 L 30.09375 0 L 30.09375 -23.828125 C 30.09375 -26.859375 29.304688 -29.203125 27.734375 -30.859375 C 26.171875 -32.523438 24.007812 -33.359375 21.25 -33.359375 C 18.351562 -33.359375 15.957031 -32.453125 14.0625 -30.640625 C 12.164062 -28.828125 11.21875 -26.257812 11.21875 -22.9375 Z M 11.21875 -22.9375 "/></g></g></g><g fill="#2f3337" fill-opacity="1"><g transform="translate(265.651417, 91.655964)"><g><path d="M 11.21875 -22.9375 L 11.21875 0 L 5.359375 0 L 5.359375 -38.125 L 11.015625 -38.125 L 11.015625 -32.171875 L 11.515625 -32.171875 C 12.410156 -34.109375 13.769531 -35.664062 15.59375 -36.84375 C 17.414062 -38.03125 19.765625 -38.625 22.640625 -38.625 C 26.492188 -38.625 29.609375 -37.441406 31.984375 -35.078125 C 34.359375 -32.710938 35.546875 -29.097656 35.546875 -24.234375 L 35.546875 0 L 29.6875 0 L 29.6875 -23.828125 C 29.6875 -26.828125 28.90625 -29.164062 27.34375 -30.84375 C 25.789062 -32.519531 23.660156 -33.359375 20.953125 -33.359375 C 18.148438 -33.359375 15.828125 -32.453125 13.984375 -30.640625 C 12.140625 -28.828125 11.21875 -26.257812 11.21875 -22.9375 Z M 11.21875 -22.9375 "/></g></g></g><g fill="#2f3337" fill-opacity="1"><g transform="translate(306.56271, 91.655964)"><g><path d="M 21.34375 0.796875 C 17.675781 0.796875 14.515625 -0.015625 11.859375 -1.640625 C 9.203125 -3.273438 7.15625 -5.5625 5.71875 -8.5 C 4.289062 -11.4375 3.578125 -14.859375 3.578125 -18.765625 C 3.578125 -22.671875 4.289062 -26.117188 5.71875 -29.109375 C 7.15625 -32.097656 9.160156 -34.429688 11.734375 -36.109375 C 14.304688 -37.785156 17.3125 -38.625 20.75 -38.625 C 22.738281 -38.625 24.703125 -38.289062 26.640625 -37.625 C 28.578125 -36.96875 30.335938 -35.898438 31.921875 -34.421875 C 33.515625 -32.941406 34.78125 -30.984375 35.71875 -28.546875 C 36.664062 -26.117188 37.140625 -23.125 37.140625 -19.5625 L 37.140625 -17.078125 L 9.453125 -17.078125 C 9.585938 -13.003906 10.742188 -9.882812 12.921875 -7.71875 C 15.097656 -5.550781 17.90625 -4.46875 21.34375 -4.46875 C 23.644531 -4.46875 25.625 -4.960938 27.28125 -5.953125 C 28.9375 -6.953125 30.132812 -8.441406 30.875 -10.421875 L 36.546875 -8.84375 C 35.648438 -5.957031 33.859375 -3.628906 31.171875 -1.859375 C 28.492188 -0.0859375 25.21875 0.796875 21.34375 0.796875 Z M 9.453125 -22.140625 L 31.1875 -22.140625 C 31.1875 -25.367188 30.238281 -28.046875 28.34375 -30.171875 C 26.457031 -32.296875 23.925781 -33.359375 20.75 -33.359375 C 18.519531 -33.359375 16.582031 -32.835938 14.9375 -31.796875 C 13.300781 -30.753906 12.007812 -29.375 11.0625 -27.65625 C 10.125 -25.945312 9.585938 -24.109375 9.453125 -22.140625 Z M 9.453125 -22.140625 "/></g></g></g><g fill="#2f3337" fill-opacity="1"><g transform="translate(347.275393, 91.655964)"><g><path d="M 21.9375 -38.125 L 21.9375 -33.171875 L 13.796875 -33.171875 L 13.796875 -10.921875 C 13.796875 -9.265625 14.039062 -8.023438 14.53125 -7.203125 C 15.019531 -6.390625 15.648438 -5.84375 16.421875 -5.5625 C 17.191406 -5.289062 18.003906 -5.15625 18.859375 -5.15625 C 19.503906 -5.15625 20.035156 -5.191406 20.453125 -5.265625 C 20.867188 -5.347656 21.203125 -5.414062 21.453125 -5.46875 L 22.640625 -0.203125 C 22.242188 -0.046875 21.6875 0.109375 20.96875 0.265625 C 20.257812 0.421875 19.359375 0.5 18.265625 0.5 C 16.609375 0.5 14.988281 0.144531 13.40625 -0.5625 C 11.832031 -1.28125 10.523438 -2.363281 9.484375 -3.8125 C 8.453125 -5.269531 7.9375 -7.109375 7.9375 -9.328125 L 7.9375 -33.171875 L 2.1875 -33.171875 L 2.1875 -38.125 L 7.9375 -38.125 L 7.9375 -47.265625 L 13.796875 -47.265625 L 13.796875 -38.125 Z M 21.9375 -38.125 "/></g></g></g><g clip-path="url(#e1976a57d8)"><g clip-path="url(#c56c324558)"><path fill="#2f3337" d="M 4.136719 47.710938 L 66.296875 47.710938 L 66.296875 109.867188 L 4.136719 109.867188 Z M 4.136719 47.710938 " fill-opacity="1" fill-rule="nonzero"/></g></g><g clip-path="url(#cc71c541d3)"><path fill="#ffffff" d="M 44.128906 83.363281 C 43.871094 83.0625 43.609375 82.765625 43.347656 82.464844 C 43.222656 82.308594 43.082031 82.164062 42.9375 82.023438 C 42.796875 81.878906 42.65625 81.734375 42.515625 81.589844 C 41.949219 81.011719 41.375 80.425781 40.796875 79.835938 C 40.519531 79.535156 40.199219 79.265625 39.886719 78.984375 C 39.574219 78.707031 39.257812 78.429688 38.945312 78.148438 C 38.628906 77.871094 38.316406 77.589844 38 77.3125 C 37.839844 77.175781 37.6875 77.027344 37.523438 76.894531 L 37.035156 76.507812 C 36.777344 76.308594 36.519531 76.101562 36.261719 75.898438 C 36.347656 75.664062 36.394531 75.40625 36.394531 75.140625 C 36.394531 74.5625 36.179688 74.042969 35.824219 73.640625 C 36.121094 73.097656 36.425781 72.558594 36.734375 72.023438 L 38.203125 69.6875 L 38.570312 69.097656 C 38.695312 68.90625 38.835938 68.722656 38.96875 68.535156 C 39.238281 68.160156 39.5 67.78125 39.765625 67.402344 C 40.292969 66.648438 40.804688 65.878906 41.394531 65.171875 C 41.515625 65.015625 41.636719 64.859375 41.757812 64.707031 C 42.0625 64.859375 42.402344 64.945312 42.765625 64.945312 C 42.953125 64.945312 43.136719 64.921875 43.316406 64.875 C 43.523438 65.265625 43.734375 65.652344 43.953125 66.03125 L 44.898438 67.515625 C 45.214844 68.007812 45.515625 68.507812 45.847656 68.992188 C 46.1875 69.46875 46.539062 69.9375 46.882812 70.414062 L 47.402344 71.121094 C 47.570312 71.355469 47.742188 71.59375 47.933594 71.820312 L 49.042969 73.175781 L 49.605469 73.851562 L 49.890625 74.183594 L 50.1875 74.507812 L 51.382812 75.792969 C 51.78125 76.21875 52.175781 76.652344 52.613281 77.042969 L 53.882812 78.246094 L 54.523438 78.847656 C 54.734375 79.046875 54.96875 79.222656 55.191406 79.414062 L 56.539062 80.53125 L 57.214844 81.078125 L 57.921875 81.597656 C 57.996094 81.648438 58.066406 81.703125 58.144531 81.753906 C 57.910156 82.109375 57.769531 82.535156 57.765625 82.996094 C 57.441406 83 57.09375 83.011719 56.726562 83.027344 C 56.292969 83.03125 55.835938 83.082031 55.351562 83.128906 C 54.871094 83.171875 54.359375 83.226562 53.832031 83.285156 C 53.300781 83.347656 52.742188 83.382812 52.175781 83.472656 C 51.609375 83.570312 51.023438 83.667969 50.421875 83.773438 C 49.820312 83.886719 49.199219 83.984375 48.570312 84.113281 C 48.132812 84.21875 47.679688 84.324219 47.230469 84.4375 C 46.84375 83.746094 46.105469 83.28125 45.261719 83.28125 C 44.898438 83.28125 44.5625 83.367188 44.261719 83.515625 C 44.21875 83.464844 44.175781 83.414062 44.128906 83.363281 Z M 39.101562 54.175781 L 39.644531 55.390625 C 40.023438 56.1875 40.417969 56.972656 40.785156 57.769531 C 41.1875 58.550781 41.601562 59.328125 41.988281 60.113281 C 42.058594 60.242188 42.128906 60.367188 42.203125 60.492188 C 42.382812 60.449219 42.570312 60.421875 42.765625 60.421875 C 43.226562 60.421875 43.65625 60.558594 44.011719 60.796875 L 45.546875 59.371094 C 46.089844 58.894531 46.644531 58.433594 47.191406 57.96875 C 47.753906 57.519531 48.324219 57.078125 48.894531 56.640625 C 45.816406 54.734375 42.308594 53.449219 38.546875 52.972656 C 38.550781 52.980469 38.550781 52.988281 38.554688 52.992188 C 38.738281 53.386719 38.925781 53.78125 39.101562 54.175781 Z M 36.816406 54.386719 C 36.699219 54.628906 36.5625 54.894531 36.417969 55.183594 C 36.269531 55.46875 36.089844 55.773438 35.90625 56.101562 C 35.523438 56.746094 35.128906 57.507812 34.609375 58.277344 C 34.101562 59.050781 33.578125 59.914062 32.933594 60.757812 C 32.621094 61.1875 32.304688 61.632812 31.96875 62.078125 C 31.621094 62.519531 31.269531 62.964844 30.898438 63.414062 C 30.714844 63.636719 30.527344 63.863281 30.34375 64.09375 C 30.148438 64.3125 29.953125 64.535156 29.753906 64.761719 C 29.355469 65.207031 28.957031 65.664062 28.546875 66.113281 C 28.117188 66.550781 27.683594 66.988281 27.25 67.421875 C 27.03125 67.644531 26.820312 67.871094 26.59375 68.078125 L 26.34375 68.3125 C 26.460938 68.582031 26.523438 68.882812 26.523438 69.195312 C 26.523438 69.351562 26.507812 69.507812 26.476562 69.65625 C 26.609375 69.71875 26.738281 69.78125 26.867188 69.84375 C 27.539062 70.1875 28.214844 70.578125 28.910156 70.957031 C 29.613281 71.324219 30.289062 71.75 30.976562 72.175781 C 31.320312 72.386719 31.667969 72.605469 32.015625 72.824219 C 32.269531 72.984375 32.519531 73.160156 32.773438 73.335938 C 33.152344 73.046875 33.625 72.875 34.136719 72.875 C 34.28125 72.875 34.421875 72.890625 34.558594 72.914062 L 34.804688 72.488281 C 35.046875 72.085938 35.265625 71.667969 35.527344 71.277344 L 37.101562 68.933594 L 37.496094 68.351562 C 37.632812 68.15625 37.777344 67.976562 37.917969 67.785156 C 38.203125 67.414062 38.492188 67.039062 38.78125 66.671875 C 39.359375 65.933594 39.921875 65.179688 40.5625 64.488281 C 40.695312 64.335938 40.828125 64.1875 40.960938 64.035156 C 40.675781 63.660156 40.507812 63.191406 40.507812 62.679688 C 40.507812 61.984375 40.824219 61.355469 41.324219 60.941406 L 41.128906 60.53125 C 40.78125 59.710938 40.453125 58.882812 40.121094 58.058594 C 39.816406 57.21875 39.539062 56.371094 39.25 55.535156 L 38.890625 54.253906 C 38.773438 53.835938 38.667969 53.410156 38.554688 52.992188 C 38.550781 52.988281 38.546875 52.980469 38.542969 52.972656 C 38.546875 52.972656 38.546875 52.972656 38.546875 52.972656 C 38.546875 52.972656 38.546875 52.972656 38.546875 52.96875 C 38.222656 52.925781 37.890625 52.890625 37.558594 52.863281 C 37.554688 52.863281 37.488281 53.003906 37.363281 53.265625 C 37.238281 53.523438 37.058594 53.90625 36.816406 54.386719 Z M 43.226562 84.183594 C 42.964844 83.898438 42.703125 83.613281 42.4375 83.324219 C 42.308594 83.175781 42.167969 83.039062 42.023438 82.902344 C 41.882812 82.765625 41.742188 82.628906 41.597656 82.492188 C 41.027344 81.941406 40.449219 81.382812 39.867188 80.820312 C 39.582031 80.53125 39.277344 80.269531 38.972656 80.003906 C 38.664062 79.738281 38.359375 79.472656 38.054688 79.203125 C 37.746094 78.9375 37.4375 78.667969 37.132812 78.398438 C 36.976562 78.265625 36.828125 78.128906 36.667969 78 L 36.175781 77.617188 C 35.917969 77.417969 35.652344 77.21875 35.394531 77.015625 C 35.035156 77.257812 34.601562 77.398438 34.136719 77.398438 C 34.039062 77.398438 33.945312 77.390625 33.847656 77.378906 C 33.527344 78.042969 33.230469 78.703125 32.917969 79.363281 C 32.722656 79.773438 32.546875 80.199219 32.371094 80.625 L 31.839844 81.898438 C 31.664062 82.324219 31.515625 82.757812 31.351562 83.1875 L 30.863281 84.480469 L 30.417969 85.789062 C 30.277344 86.222656 30.113281 86.652344 29.992188 87.097656 L 29.601562 88.421875 L 29.398438 89.082031 L 29.222656 89.753906 C 29.042969 90.433594 28.855469 91.117188 28.695312 91.800781 C 28.90625 91.898438 29.097656 92.027344 29.265625 92.183594 C 29.367188 92.113281 29.46875 92.042969 29.566406 91.976562 C 30.113281 91.636719 30.671875 91.289062 31.238281 90.933594 C 32.382812 90.25 33.582031 89.566406 34.84375 88.949219 C 35.160156 88.789062 35.472656 88.632812 35.789062 88.46875 C 36.109375 88.320312 36.429688 88.171875 36.753906 88.023438 C 37.398438 87.730469 38.046875 87.429688 38.714844 87.171875 C 39.375 86.914062 40.03125 86.632812 40.703125 86.390625 C 41.375 86.152344 42.042969 85.910156 42.710938 85.683594 C 42.808594 85.652344 42.90625 85.625 43.003906 85.59375 C 43.003906 85.574219 43 85.558594 43 85.542969 C 43 85.089844 43.136719 84.675781 43.363281 84.320312 C 43.316406 84.277344 43.269531 84.230469 43.226562 84.183594 Z M 57.804688 83.378906 C 57.480469 83.425781 57.136719 83.46875 56.769531 83.515625 C 56.339844 83.558594 55.890625 83.648438 55.417969 83.738281 C 54.949219 83.832031 54.449219 83.921875 53.933594 84.011719 C 53.417969 84.113281 52.878906 84.1875 52.324219 84.316406 C 51.777344 84.449219 51.203125 84.585938 50.617188 84.71875 C 50.03125 84.859375 49.425781 84.988281 48.8125 85.144531 C 48.390625 85.269531 47.957031 85.394531 47.519531 85.523438 L 47.519531 85.542969 C 47.519531 86.074219 47.335938 86.5625 47.027344 86.949219 C 47.894531 88.039062 48.597656 89.1875 49.285156 90.214844 C 49.457031 90.476562 49.628906 90.730469 49.792969 90.984375 C 49.960938 91.234375 50.089844 91.496094 50.238281 91.746094 C 50.519531 92.238281 50.785156 92.710938 51.039062 93.152344 C 51.289062 93.59375 51.53125 94.003906 51.730469 94.398438 C 51.921875 94.792969 52.097656 95.160156 52.257812 95.488281 C 52.574219 96.140625 52.8125 96.664062 52.984375 97.015625 C 53.128906 97.324219 53.214844 97.503906 53.230469 97.546875 C 53.207031 97.507812 53.101562 97.339844 52.917969 97.046875 C 52.710938 96.714844 52.402344 96.234375 52.023438 95.613281 C 51.832031 95.304688 51.625 94.964844 51.394531 94.59375 C 51.15625 94.226562 50.878906 93.84375 50.597656 93.421875 C 50.3125 93.007812 50.011719 92.5625 49.691406 92.097656 C 49.527344 91.863281 49.371094 91.621094 49.195312 91.382812 C 49.015625 91.148438 48.832031 90.90625 48.648438 90.660156 C 48.277344 90.167969 47.890625 89.65625 47.484375 89.125 C 47.289062 88.859375 47.085938 88.589844 46.851562 88.332031 C 46.648438 88.082031 46.441406 87.832031 46.230469 87.582031 C 45.933594 87.722656 45.605469 87.800781 45.261719 87.800781 C 44.476562 87.800781 43.789062 87.40625 43.386719 86.804688 C 43.289062 86.839844 43.191406 86.871094 43.097656 86.902344 C 42.457031 87.148438 41.808594 87.378906 41.160156 87.621094 C 40.507812 87.859375 39.867188 88.144531 39.222656 88.40625 C 38.574219 88.660156 37.945312 88.96875 37.308594 89.25 C 36.992188 89.394531 36.675781 89.535156 36.359375 89.675781 C 36.050781 89.828125 35.738281 89.980469 35.433594 90.132812 C 34.8125 90.433594 34.199219 90.730469 33.609375 91.058594 C 33.023438 91.382812 32.421875 91.671875 31.851562 92 C 31.285156 92.328125 30.722656 92.644531 30.179688 92.960938 C 30.082031 93.019531 29.984375 93.078125 29.886719 93.136719 C 29.960938 93.363281 30.003906 93.605469 30.003906 93.851562 C 30.003906 93.90625 30 93.960938 29.996094 94.019531 C 30.554688 94.25 31.113281 94.480469 31.671875 94.671875 L 33.019531 95.160156 C 33.464844 95.335938 33.925781 95.484375 34.378906 95.628906 L 35.753906 96.074219 C 35.980469 96.148438 36.210938 96.222656 36.441406 96.292969 L 37.136719 96.484375 C 37.601562 96.605469 38.066406 96.738281 38.53125 96.867188 L 39.222656 97.066406 L 39.925781 97.230469 L 41.335938 97.558594 C 41.804688 97.664062 42.273438 97.785156 42.746094 97.867188 C 43.695312 98.042969 44.640625 98.25 45.597656 98.398438 L 48.46875 98.839844 C 49.433594 98.945312 50.402344 99.058594 51.367188 99.1875 L 51.371094 98.558594 L 51.367188 99.1875 C 52.015625 98.675781 52.644531 98.128906 53.238281 97.554688 C 56.6875 94.246094 59.21875 90 60.433594 85.226562 C 60.304688 85.25 60.167969 85.261719 60.03125 85.261719 C 58.910156 85.261719 57.984375 84.445312 57.804688 83.378906 Z M 48.894531 56.640625 C 48.394531 57.160156 47.890625 57.671875 47.382812 58.179688 C 46.890625 58.703125 46.40625 59.230469 45.910156 59.742188 L 44.539062 61.285156 C 44.84375 61.667969 45.023438 62.152344 45.023438 62.683594 C 45.023438 63.300781 44.777344 63.859375 44.375 64.269531 L 45.039062 65.367188 L 45.984375 66.808594 C 46.300781 67.285156 46.601562 67.773438 46.933594 68.238281 C 47.277344 68.699219 47.601562 69.171875 47.941406 69.636719 L 48.4375 70.339844 C 48.605469 70.574219 48.769531 70.808594 48.953125 71.027344 L 50.027344 72.375 L 50.550781 73.054688 L 50.816406 73.394531 L 51.097656 73.71875 L 52.226562 75.023438 C 52.605469 75.453125 52.960938 75.910156 53.363281 76.316406 L 54.542969 77.574219 L 55.132812 78.207031 C 55.324219 78.421875 55.539062 78.617188 55.742188 78.820312 L 56.976562 80.03125 L 57.585938 80.648438 L 58.226562 81.230469 C 58.296875 81.292969 58.359375 81.351562 58.425781 81.410156 C 58.835938 80.996094 59.402344 80.742188 60.027344 80.742188 C 60.433594 80.742188 60.8125 80.847656 61.140625 81.035156 C 61.207031 80.292969 61.238281 79.542969 61.238281 78.785156 C 61.238281 69.429688 56.304688 61.230469 48.894531 56.640625 Z M 26.796875 99.21875 L 26.824219 98.515625 L 26.871094 97.816406 L 26.96875 96.410156 C 26.980469 96.269531 26.996094 96.132812 27.011719 95.996094 C 26.699219 95.886719 26.414062 95.710938 26.179688 95.488281 C 26.03125 95.585938 25.886719 95.683594 25.746094 95.78125 C 25.316406 96.082031 24.902344 96.371094 24.515625 96.648438 C 24.316406 96.785156 24.125 96.917969 23.9375 97.046875 C 23.753906 97.183594 23.578125 97.3125 23.40625 97.441406 C 23.0625 97.699219 22.738281 97.9375 22.441406 98.15625 C 22.289062 98.265625 22.144531 98.371094 22.007812 98.472656 C 21.875 98.578125 21.746094 98.679688 21.625 98.773438 C 20.710938 99.492188 20.148438 99.910156 20.089844 99.953125 C 20.144531 99.894531 20.621094 99.386719 21.433594 98.554688 C 21.859375 98.097656 22.421875 97.605469 23.058594 97.015625 C 23.675781 96.410156 24.449219 95.804688 25.265625 95.113281 C 25.398438 95.003906 25.539062 94.894531 25.679688 94.78125 C 25.550781 94.5 25.476562 94.183594 25.476562 93.851562 C 25.476562 93.761719 25.484375 93.671875 25.496094 93.585938 C 24.691406 93.203125 23.910156 92.769531 23.121094 92.359375 L 22.46875 92.011719 C 22.257812 91.886719 22.050781 91.757812 21.839844 91.632812 L 20.578125 90.871094 L 19.949219 90.488281 L 19.339844 90.078125 C 18.925781 89.808594 18.527344 89.53125 18.121094 89.253906 C 17.710938 88.984375 17.320312 88.6875 16.929688 88.394531 L 15.753906 87.511719 C 15.359375 87.222656 14.992188 86.890625 14.617188 86.582031 L 13.492188 85.636719 C 13.117188 85.324219 12.769531 84.972656 12.410156 84.644531 C 12.054688 84.308594 11.695312 83.976562 11.34375 83.636719 C 10.660156 82.945312 9.996094 82.234375 9.332031 81.515625 C 10.125 89.113281 14.1875 95.738281 20.085938 99.957031 C 22.128906 101.421875 24.390625 102.59375 26.8125 103.417969 C 26.789062 102.488281 26.75 101.554688 26.765625 100.621094 Z M 46.980469 99.15625 L 45.515625 99.074219 C 45.023438 99.0625 44.542969 98.980469 44.054688 98.933594 L 42.597656 98.765625 C 42.109375 98.71875 41.625 98.636719 41.144531 98.546875 L 39.695312 98.296875 L 38.972656 98.167969 L 38.253906 98.003906 C 37.777344 97.898438 37.300781 97.789062 36.820312 97.675781 L 36.101562 97.503906 C 35.867188 97.445312 35.632812 97.371094 35.398438 97.308594 L 33.980469 96.898438 C 33.03125 96.652344 32.105469 96.292969 31.175781 95.972656 C 30.582031 95.777344 30.019531 95.554688 29.457031 95.324219 C 29.058594 95.792969 28.460938 96.097656 27.796875 96.113281 C 27.691406 96.703125 27.601562 97.292969 27.5 97.886719 L 27.390625 98.570312 L 27.121094 100.644531 C 27.007812 101.566406 26.929688 102.492188 26.820312 103.417969 C 29.449219 104.320312 32.277344 104.808594 35.214844 104.808594 C 41.316406 104.808594 46.929688 102.707031 51.367188 99.1875 C 50.394531 99.210938 49.417969 99.21875 48.441406 99.21875 C 47.953125 99.222656 47.46875 99.179688 46.980469 99.15625 Z M 11.621094 83.332031 C 12.402344 83.90625 13.160156 84.503906 13.945312 85.066406 L 15.128906 85.902344 C 15.527344 86.175781 15.910156 86.46875 16.324219 86.722656 L 17.53125 87.519531 C 17.933594 87.785156 18.332031 88.050781 18.753906 88.292969 C 19.164062 88.539062 19.578125 88.785156 19.988281 89.039062 L 20.601562 89.414062 L 21.230469 89.765625 L 22.492188 90.46875 C 22.703125 90.582031 22.914062 90.707031 23.125 90.816406 L 23.769531 91.140625 C 24.542969 91.53125 25.304688 91.945312 26.09375 92.304688 C 26.480469 91.890625 27.019531 91.625 27.625 91.59375 C 27.753906 90.882812 27.910156 90.179688 28.054688 89.46875 C 28.226562 88.542969 28.496094 87.640625 28.730469 86.730469 C 28.839844 86.269531 28.988281 85.828125 29.125 85.375 L 29.535156 84.023438 C 29.835938 83.136719 30.148438 82.246094 30.484375 81.367188 L 31.011719 80.058594 C 31.183594 79.621094 31.359375 79.183594 31.5625 78.753906 C 31.875 78.070312 32.175781 77.367188 32.503906 76.699219 C 32.113281 76.292969 31.871094 75.742188 31.871094 75.136719 C 31.871094 74.90625 31.90625 74.679688 31.972656 74.46875 C 31.734375 74.296875 31.496094 74.128906 31.25 73.96875 C 30.910156 73.753906 30.578125 73.539062 30.242188 73.324219 C 29.578125 72.890625 28.929688 72.449219 28.261719 72.074219 C 27.597656 71.6875 26.964844 71.289062 26.308594 70.929688 C 26.179688 70.859375 26.054688 70.789062 25.925781 70.71875 C 25.511719 71.171875 24.921875 71.457031 24.261719 71.457031 C 23.84375 71.457031 23.457031 71.34375 23.125 71.148438 C 22.164062 71.902344 21.210938 72.648438 20.25 73.292969 C 19.3125 73.976562 18.351562 74.5625 17.449219 75.128906 C 16.527344 75.660156 15.671875 76.1875 14.839844 76.59375 C 14.425781 76.804688 14.03125 77.007812 13.65625 77.203125 C 13.28125 77.394531 12.90625 77.542969 12.566406 77.703125 C 11.882812 78.015625 11.285156 78.285156 10.777344 78.472656 C 9.796875 78.855469 9.230469 79.058594 9.203125 79.070312 C 9.226562 79.054688 9.734375 78.726562 10.636719 78.191406 C 11.101562 77.921875 11.644531 77.558594 12.277344 77.171875 C 12.910156 76.78125 13.609375 76.3125 14.375 75.8125 C 14.566406 75.6875 14.757812 75.558594 14.957031 75.425781 C 15.152344 75.292969 15.347656 75.152344 15.550781 75.011719 C 15.957031 74.730469 16.371094 74.445312 16.804688 74.144531 C 17.226562 73.835938 17.65625 73.519531 18.097656 73.191406 C 18.546875 72.878906 18.988281 72.535156 19.4375 72.1875 C 19.882812 71.835938 20.351562 71.492188 20.789062 71.113281 C 21.238281 70.746094 21.691406 70.378906 22.148438 70.003906 C 22.054688 69.75 22 69.480469 22 69.199219 C 22 69.035156 22.015625 68.875 22.050781 68.71875 C 21.628906 68.507812 21.214844 68.296875 20.800781 68.128906 C 19.667969 67.628906 18.636719 67.144531 17.699219 66.789062 C 17.230469 66.597656 16.792969 66.421875 16.386719 66.261719 C 15.984375 66.085938 15.601562 65.957031 15.261719 65.832031 C 13.972656 65.375 13.210938 65.085938 13.121094 65.050781 C 13.214844 65.070312 14.015625 65.234375 15.34375 65.546875 C 16.054688 65.691406 16.902344 65.960938 17.882812 66.242188 C 18.371094 66.390625 18.902344 66.527344 19.4375 66.726562 C 19.972656 66.917969 20.539062 67.121094 21.128906 67.332031 C 21.566406 67.480469 22.003906 67.65625 22.449219 67.84375 C 22.863281 67.292969 23.519531 66.933594 24.261719 66.933594 C 24.640625 66.933594 25.003906 67.03125 25.316406 67.199219 L 25.550781 66.988281 C 25.777344 66.789062 25.984375 66.570312 26.203125 66.359375 C 26.632812 65.933594 27.0625 65.511719 27.484375 65.097656 C 27.898438 64.667969 28.3125 64.242188 28.71875 63.820312 C 28.917969 63.609375 29.125 63.398438 29.320312 63.191406 C 29.515625 62.976562 29.707031 62.761719 29.894531 62.550781 C 30.269531 62.125 30.648438 61.710938 31.019531 61.304688 C 31.375 60.894531 31.714844 60.476562 32.054688 60.078125 C 32.222656 59.878906 32.386719 59.679688 32.550781 59.488281 C 32.632812 59.386719 32.714844 59.292969 32.796875 59.195312 C 32.875 59.101562 32.953125 59.003906 33.027344 58.90625 C 33.335938 58.519531 33.628906 58.148438 33.910156 57.789062 C 34.488281 57.078125 34.972656 56.398438 35.421875 55.804688 C 35.648438 55.503906 35.855469 55.226562 36.050781 54.96875 C 36.238281 54.703125 36.410156 54.460938 36.5625 54.238281 C 36.871094 53.800781 37.121094 53.457031 37.289062 53.222656 C 37.460938 52.988281 37.550781 52.867188 37.550781 52.867188 C 36.78125 52.796875 36 52.761719 35.210938 52.761719 C 25.882812 52.757812 17.703125 57.667969 13.109375 65.046875 C 10.625 69.03125 9.191406 73.742188 9.191406 78.785156 C 9.191406 78.878906 9.191406 78.976562 9.191406 79.074219 C 9.199219 79.898438 9.246094 80.710938 9.328125 81.511719 C 9.71875 81.8125 10.097656 82.117188 10.480469 82.417969 C 10.863281 82.71875 11.234375 83.035156 11.621094 83.332031 Z M 11.621094 83.332031 " fill-opacity="1" fill-rule="nonzero"/></g></svg>